<?xml version="1.0" encoding="UTF-8"?><svg id="_イン" xmlns="http://www.w3.org/2000/svg" viewBox="0 0 1360 170"><defs><style>.cls-1{fill:#1a1a1a;}</style></defs><path class="cls-1" d="M837.87,0h-54.58c-1.65,0-2.96,1.34-2.96,2.96V167.02c0,1.63,1.31,2.98,2.96,2.98h54.58c4.36,0,8.02-1.43,10.93-4.28,2.85-2.83,4.29-6.5,4.29-10.89v-60.54c0-.97-.5-1.92-1.33-2.48l-14.13-9.24,14.13-9.23c.83-.56,1.33-1.46,1.33-2.47V15.18c0-4.37-1.44-8.07-4.31-10.88-2.91-2.87-6.55-4.3-10.91-4.3Zm-5.36,19.05V63.22l-14.24,9.83h-17.31V19.05h31.55Zm-15.86,72.58l15.86,10.34v49.03h-31.55v-58.96l15.69-.42Z"/><path class="cls-1" d="M756.41,0h-14.57c-1.65,0-3,1.34-3,2.96V151.02h-32.87V2.96c0-1.62-1.33-2.96-2.98-2.96h-14.6c-1.64,0-2.99,1.34-2.99,2.96V154.89c0,4.42,1.45,8.04,4.31,10.88,2.82,2.79,6.5,4.23,10.88,4.23h43.62c4.42,0,8.09-1.44,10.9-4.27,2.84-2.83,4.26-6.48,4.26-10.84V2.96c0-1.62-1.32-2.96-2.97-2.96Z"/><path class="cls-1" d="M661.49,0h-13.83c-1.64,0-2.99,1.34-2.99,2.96V74.22h-34.46V2.96c0-1.62-1.32-2.96-2.95-2.96h-13.83c-1.63,0-2.95,1.34-2.95,2.96V167.03c0,1.62,1.31,2.97,2.95,2.97h13.83c1.63,0,2.95-1.34,2.95-2.97V93.2h34.46v73.84c0,1.62,1.35,2.97,2.99,2.97h13.83c1.63,0,2.97-1.34,2.97-2.97V2.96c0-1.62-1.33-2.96-2.97-2.96Z"/><path class="cls-1" d="M71.24,0h-14.64c-1.63,0-2.99,1.33-2.99,2.95V151.01H20.59V2.95c0-1.62-1.32-2.95-2.96-2.95H2.96C1.31,0,0,1.33,0,2.95V154.9c0,4.41,1.43,8.01,4.27,10.87,2.88,2.79,6.55,4.24,10.95,4.24H58.99c4.45,0,8.14-1.44,10.96-4.26,2.85-2.85,4.27-6.47,4.27-10.84V2.95c0-1.62-1.35-2.95-2.99-2.95Z"/><path class="cls-1" d="M170.39,0h-13.87c-1.63,0-2.97,1.33-2.97,2.95V104.74L115.98,1.95c-.41-1.17-1.53-1.95-2.78-1.95h-11.06c-1.63,0-2.97,1.33-2.97,2.95V167.03c0,1.64,1.33,2.97,2.97,2.97h13.88c1.64,0,2.97-1.33,2.97-2.97V63.12l38.41,104.92c.45,1.19,1.56,1.96,2.81,1.96h10.17c1.64,0,2.97-1.33,2.97-2.97V2.95c0-1.62-1.33-2.95-2.97-2.95Z"/><path class="cls-1" d="M255.27,151.01h-36.75v-57.82h32.65c1.64,0,2.96-1.34,2.96-2.97v-13.04c0-1.64-1.32-2.95-2.96-2.95h-32.65V18.98h36.01c1.63,0,2.97-1.33,2.97-2.96V2.95c0-1.62-1.34-2.95-2.97-2.95h-53.69c-1.63,0-2.99,1.33-2.99,2.95V167.03c0,1.64,1.36,2.97,2.99,2.97h54.43c1.63,0,2.97-1.33,2.97-2.97v-13.04c0-1.64-1.33-2.99-2.97-2.99Z"/><path class="cls-1" d="M346.89,0h-14.32c-1.48,0-2.7,1.05-2.95,2.5l-17.97,116.13L293.52,2.5c-.25-1.45-1.48-2.5-2.95-2.5h-14.64c-.87,0-1.72,.39-2.27,1.05-.55,.66-.8,1.54-.66,2.41l28.53,164.06c.25,1.43,1.48,2.47,2.94,2.47h13.91c1.44,0,2.69-1.04,2.93-2.47L349.79,3.46c.17-.87-.08-1.75-.66-2.41-.55-.66-1.39-1.05-2.25-1.05Z"/><path class="cls-1" d="M425.32,151.01h-36.79v-57.82h32.64c1.64,0,2.97-1.34,2.97-2.97v-13.04c0-1.64-1.33-2.95-2.97-2.95h-32.64V18.98h36.02c1.65,0,2.99-1.33,2.99-2.96V2.95c0-1.62-1.34-2.95-2.99-2.95h-53.6c-1.63,0-2.97,1.33-2.97,2.95V167.03c0,1.64,1.33,2.97,2.97,2.97h54.37c1.63,0,2.97-1.33,2.97-2.97v-13.04c0-1.64-1.33-2.99-2.97-2.99Z"/><path class="cls-1" d="M520.61,0h-13.86c-1.65,0-2.99,1.33-2.99,2.95V104.74L466.21,1.95c-.43-1.17-1.54-1.95-2.81-1.95h-11.04c-1.63,0-2.97,1.33-2.97,2.95V167.03c0,1.64,1.33,2.97,2.97,2.97h13.9c1.65,0,2.96-1.33,2.96-2.97V63.12l38.42,104.92c.44,1.19,1.57,1.96,2.79,1.96h10.17c1.64,0,2.99-1.33,2.99-2.97V2.95c0-1.62-1.34-2.95-2.99-2.95Z"/><path class="cls-1" d="M975.97,0h-40.44c-4.27,0-7.92,1.42-10.91,4.29-2.88,2.82-4.31,6.48-4.31,10.84V47.91c0,5.22,1.83,10.03,5.41,14.36l44.83,52.73v36.02h-29.71v-36.94c0-1.63-1.33-2.98-2.98-2.98h-14.56c-1.63,0-2.99,1.36-2.99,2.98v40.82c0,4.37,1.44,7.99,4.31,10.87,2.85,2.79,6.53,4.24,10.91,4.24h40.44c4.48,0,8.15-1.46,10.88-4.24,2.86-2.86,4.33-6.49,4.33-10.87v-37.47c0-5.13-1.78-9.9-5.29-14.15l-45.04-52.75V18.98h29.71V52.93c0,1.63,1.35,2.97,2.98,2.97h14.64c1.65,0,3-1.34,3-2.97V15.13c0-4.39-1.47-8.05-4.31-10.84-2.83-2.82-6.61-4.29-10.9-4.29Z"/><path class="cls-1" d="M1075.34,0h-66.07c-1.64,0-2.96,1.33-2.96,2.95v13.08c0,1.63,1.32,2.96,2.96,2.96h22.93V167.03c0,1.64,1.31,2.97,2.95,2.97h14.67c1.63,0,2.97-1.33,2.97-2.97V18.98h22.56c1.63,0,3-1.33,3-2.96V2.95c0-1.62-1.36-2.95-3-2.95Z"/><path class="cls-1" d="M1154.49,0h-45.24c-4.31,0-8,1.42-10.95,4.29-2.83,2.84-4.26,6.48-4.26,10.84V154.9c0,4.35,1.43,7.99,4.26,10.84,2.83,2.82,6.53,4.26,10.95,4.26h45.24c4.44,0,8.12-1.44,10.99-4.26,2.83-2.84,4.27-6.47,4.27-10.84V15.13c0-4.36-1.44-8.05-4.3-10.88-2.96-2.82-6.65-4.25-10.96-4.25Zm-39.9,151.01V18.98h34.62V151.01h-34.62Z"/><path class="cls-1" d="M1357.01,151.01h-36.84v-57.82h32.69c1.64,0,2.95-1.34,2.95-2.97v-13.04c0-1.64-1.31-2.95-2.95-2.95h-32.69V18.98h36.06c1.63,0,2.95-1.33,2.95-2.96V2.95c0-1.62-1.31-2.95-2.95-2.95h-53.61c-1.64,0-2.96,1.33-2.96,2.95V167.03c0,1.64,1.32,2.97,2.96,2.97h54.38c1.64,0,2.99-1.33,2.99-2.97v-13.04c0-1.64-1.35-2.99-2.99-2.99Z"/><path class="cls-1" d="M1256.32,91.94c4.36,0,8-1.44,10.91-4.26,2.83-2.8,4.31-6.41,4.31-11.47V15.13c0-4.42-1.48-8.09-4.35-10.88-2.95-2.82-6.6-4.25-10.88-4.25h-54.54c-1.64,0-2.96,1.33-2.96,2.95V167.03c0,1.64,1.32,2.97,2.96,2.97h14.6c1.65,0,2.95-1.33,2.95-2.97V91.94h7.8l26.57,76.07c.41,1.19,1.55,1.98,2.82,1.98h15.39c.99,0,1.88-.47,2.42-1.26,.58-.8,.7-1.79,.38-2.69l-26.62-74.11h8.24Zm-5.37-72.96v53.99h-31.62V18.98h31.62Z"/></svg>